<?xml version="1.0" standalone="no"?>
<!DOCTYPE svg PUBLIC "-//W3C//DTD SVG 20010904//EN"
 "http://www.w3.org/TR/2001/REC-SVG-20010904/DTD/svg10.dtd">
<svg version="1.0" xmlns="http://www.w3.org/2000/svg"
 width="1280.000000pt" height="1035.000000pt" viewBox="0 0 1280.000000 1035.000000"
 preserveAspectRatio="xMidYMid meet">
<g transform="translate(0.000000,1035.000000) scale(0.100000,-0.100000)"
fill="#000000" stroke="none">
<path d="M0 8277 l0 -2073 98 -52 c118 -62 210 -98 277 -107 42 -6 57 -15 95
-54 47 -49 53 -60 144 -252 32 -69 77 -144 110 -185 57 -70 67 -94 42 -94 -8
0 -63 17 -123 37 -106 36 -111 37 -258 38 l-150 0 -117 -45 -118 -45 0 -1750
c-1 -1894 20 -3648 42 -3671 9 -8 120 79 393 310 352 298 524 413 782 527 180
79 291 141 379 210 81 64 175 120 249 148 165 63 200 88 285 206 33 46 88 109
122 139 60 53 61 55 49 83 -7 15 -30 51 -52 79 -48 63 -62 104 -53 167 6 47 6
47 -24 47 -46 0 -55 52 -27 147 17 57 87 168 115 183 29 16 45 3 100 -76 71
-103 117 -131 103 -64 -8 43 13 46 108 15 59 -20 92 -26 123 -22 22 4 73 11
111 16 39 5 192 15 340 21 568 23 705 37 855 86 157 52 395 187 395 224 0 8
-16 17 -39 22 -87 18 -217 158 -346 373 -94 157 -185 288 -257 368 -160 179
-278 503 -229 632 45 116 139 122 406 23 74 -27 156 -53 182 -57 26 -5 54 -14
63 -21 25 -20 107 -159 169 -283 116 -234 136 -361 186 -1161 23 -365 20 -440
-24 -656 -56 -275 -98 -301 -212 -130 -23 36 -78 99 -122 141 -43 42 -93 101
-111 130 l-32 54 6 -87 c13 -193 138 -593 260 -839 45 -90 58 -105 90 -111 17
-3 20 -12 21 -54 1 -38 12 -74 46 -145 83 -176 226 -383 271 -394 50 -13 212
70 372 190 44 33 137 117 207 188 73 73 141 134 162 142 34 14 39 14 84 -9 53
-27 141 -46 213 -46 131 0 407 -78 581 -165 201 -100 271 -184 298 -364 12
-79 29 -123 44 -118 6 2 14 41 19 87 7 76 19 114 62 190 15 28 35 134 35 191
0 56 28 136 61 174 30 34 31 37 24 102 -7 75 7 129 47 184 48 65 98 73 215 34
95 -32 153 -66 194 -113 45 -52 66 -61 134 -62 82 0 160 22 253 71 72 38 81
40 134 35 l56 -7 -1 50 c-2 56 17 85 70 107 45 19 47 30 10 44 -17 7 -56 24
-84 37 -67 31 -70 56 -13 102 64 52 101 145 115 296 12 122 34 202 60 219 29
19 51 84 70 211 18 128 35 414 35 609 0 186 17 522 30 595 6 30 16 58 23 63
59 37 256 -67 382 -204 94 -101 136 -220 155 -440 16 -187 35 -230 123 -272
63 -31 145 -50 299 -70 207 -27 392 -85 613 -191 156 -75 215 -116 215 -149 0
-40 -34 -60 -108 -64 -85 -4 -127 18 -138 72 -11 63 -98 125 -175 126 -35 0
-37 -2 -48 -45 -6 -25 -16 -123 -21 -218 -11 -209 -28 -311 -80 -487 -41 -142
-65 -258 -75 -375 -12 -135 -44 -215 -146 -365 -75 -110 -104 -182 -118 -295
-7 -49 -28 -135 -47 -190 -20 -55 -38 -110 -41 -122 l-5 -23 717 0 718 0 -6
228 c-6 227 -18 316 -52 399 -33 78 -46 197 -55 509 -5 171 -13 329 -19 351
-8 30 -19 43 -43 54 -44 19 -58 51 -58 130 0 83 21 116 78 121 61 5 54 52 -14
95 -19 12 -19 13 1 29 16 13 35 15 95 10 133 -10 230 -51 259 -110 12 -25 11
-35 -13 -95 -31 -79 -42 -148 -51 -301 -6 -128 7 -422 30 -630 22 -203 116
-753 131 -769 9 -10 43 -16 99 -19 145 -8 146 -2 86 334 -72 398 -95 599 -112
967 -5 133 -12 248 -15 256 -3 10 -11 5 -24 -17 -23 -38 -58 -42 -86 -11 -23
26 -33 154 -14 199 15 36 32 40 93 23 26 -8 84 -18 129 -23 110 -13 139 -33
198 -140 34 -61 60 -95 95 -122 91 -69 279 -151 635 -278 396 -141 635 -255
838 -400 l137 -98 3 1678 2 1678 -106 154 c-145 211 -214 358 -214 460 0 39
24 78 48 78 30 0 43 16 53 61 12 53 49 95 107 120 73 32 78 65 98 669 13 392
15 775 11 2185 -6 1991 -15 2357 -62 2404 -13 14 -22 9 -78 -49 -35 -36 -92
-112 -127 -169 -75 -122 -159 -217 -215 -242 -70 -32 -175 -21 -222 23 -30 28
-29 53 2 89 28 34 41 74 56 174 21 145 31 191 50 234 11 25 16 48 11 53 -39
39 -768 50 -3684 55 -2545 4 -2638 4 -2638 -14 0 -10 7 -90 15 -178 17 -191
19 -360 4 -403 -13 -39 -33 -45 -141 -45 -68 0 -96 5 -132 23 -85 41 -112 106
-127 300 -20 256 -19 253 -60 272 -27 14 -90 21 -270 33 -320 20 -1502 21
-1769 0 -191 -14 -236 -23 -246 -50 -14 -34 29 -110 103 -184 80 -79 97 -109
88 -152 -7 -32 15 -59 50 -59 34 0 74 -20 80 -41 13 -39 31 -42 91 -15 138 63
211 38 230 -81 9 -58 -16 -110 -62 -129 -63 -26 -140 -2 -166 53 -12 25 -19
28 -71 31 -50 3 -70 -2 -148 -38 -123 -57 -106 -64 -353 150 -38 33 -94 72
-125 86 -31 14 -63 29 -71 33 -49 25 -94 118 -156 324 l-26 87 -1314 0 -1314
0 0 -2073z m10512 1483 c181 -37 265 -83 388 -210 87 -89 132 -115 225 -130
78 -12 117 -30 162 -73 60 -57 51 -125 -22 -176 -121 -83 -427 -141 -735 -141
-127 0 -153 3 -212 24 -202 71 -339 259 -326 445 9 120 93 233 197 265 68 21
207 19 323 -4z m1606 -159 c28 -21 51 -51 74 -98 30 -61 33 -76 33 -153 0 -75
-3 -91 -29 -138 -50 -90 -129 -138 -243 -149 -75 -7 -90 9 -53 59 12 16 19 32
17 35 -3 3 -48 -17 -99 -45 -122 -66 -222 -97 -260 -81 -34 14 -56 47 -64 97
-12 74 48 162 110 162 23 0 35 -29 25 -64 -8 -26 -6 -34 13 -49 16 -13 31 -17
52 -13 40 8 40 9 42 69 2 66 33 130 112 228 66 82 89 105 146 143 50 33 74 33
124 -3z m-5273 -106 c140 -22 242 -47 375 -93 252 -86 368 -142 640 -309 107
-66 240 -144 295 -174 92 -50 115 -69 291 -244 174 -173 328 -343 381 -420 12
-17 26 -49 32 -72 6 -23 32 -72 56 -108 25 -36 65 -95 90 -131 44 -64 63 -109
52 -121 -32 -32 -161 115 -234 267 -25 52 -52 111 -62 130 -9 19 -43 63 -76
97 -56 58 -64 63 -104 63 l-42 0 7 45 c10 68 -30 104 -54 50 -6 -14 -18 -25
-25 -25 -16 0 -61 47 -109 115 -58 80 -300 307 -313 293 -3 -3 6 -35 20 -72
55 -147 24 -141 -140 26 -138 141 -242 238 -256 238 -4 0 -11 -9 -14 -20 -10
-31 -40 -24 -106 23 -59 41 -61 42 -75 22 -46 -65 -88 -85 -179 -85 -64 1
-156 32 -175 61 -8 12 -28 35 -43 51 -25 28 -31 30 -72 23 -25 -3 -54 -4 -64
0 -22 7 -39 45 -43 95 l-3 35 -79 3 c-86 3 -173 -11 -202 -33 -18 -13 -18 -15
-2 -31 14 -15 22 -16 43 -6 32 15 65 15 65 2 0 -21 -29 -66 -67 -102 -79 -76
-207 -117 -259 -83 -25 16 -26 20 -19 72 9 72 -6 107 -60 138 -53 32 -101 33
-110 4 -9 -27 11 -40 42 -28 17 6 25 5 29 -5 9 -23 -19 -66 -93 -146 l-68 -73
41 6 c54 9 96 -5 146 -48 51 -43 120 -65 209 -65 195 0 503 -130 864 -364 182
-118 362 -209 470 -237 111 -28 174 -67 219 -133 33 -49 33 -86 0 -125 l-26
-31 29 0 c53 0 77 -21 83 -70 4 -38 10 -48 42 -69 58 -38 73 -88 72 -247 -2
-210 -20 -238 -144 -228 l-76 7 -26 -35 c-27 -35 -28 -35 -120 -40 -144 -8
-200 -40 -260 -148 -32 -57 -66 -100 -79 -100 -4 0 -16 16 -28 35 -20 35 -51
48 -51 21 0 -23 81 -106 134 -136 30 -18 66 -30 86 -30 77 0 223 122 248 208
14 46 50 79 122 111 60 27 100 28 100 1 0 -22 -26 -53 -187 -222 -138 -147
-152 -176 -164 -359 -10 -155 2 -430 22 -487 21 -60 48 -34 64 61 13 80 83 69
133 -21 15 -26 33 -44 49 -48 47 -12 66 34 49 114 -9 38 6 62 38 62 50 0 89
-87 63 -142 -6 -15 -28 -38 -47 -51 -38 -25 -39 -32 -29 -200 3 -49 1 -61 -15
-73 -38 -27 -80 0 -167 110 -33 42 -64 76 -70 76 -19 0 -79 -74 -115 -143 -19
-37 -51 -115 -69 -172 -52 -160 -110 -245 -218 -319 -96 -66 -171 -87 -342
-95 -106 -5 -159 -12 -180 -23 -79 -42 -103 -112 -66 -197 30 -71 27 -110 -12
-162 -52 -68 -57 -82 -57 -159 0 -41 -6 -82 -14 -98 -27 -51 -188 -188 -249
-211 -23 -9 -31 -7 -47 9 -11 11 -20 27 -20 35 0 67 -114 179 -244 241 -51 24
-96 44 -100 44 -15 0 -2 -32 44 -107 93 -151 66 -169 -91 -64 -70 47 -131 78
-183 95 -146 48 -546 93 -906 103 l-215 6 -62 -27 c-49 -20 -72 -25 -103 -20
-50 8 -78 -14 -109 -86 -42 -99 -56 -203 -81 -635 -10 -177 -27 -286 -48 -307
-16 -16 -41 -2 -53 29 -6 16 -23 85 -38 156 -15 70 -31 130 -35 135 -4 4 -13
-1 -20 -11 -19 -25 -43 -21 -68 13 -12 17 -25 30 -30 30 -4 0 -8 -26 -8 -57 0
-53 -12 -95 -23 -83 -20 22 -52 107 -63 169 -8 42 -20 236 -28 431 -16 394
-23 433 -70 438 -37 5 -77 -13 -112 -49 -15 -16 -38 -29 -50 -29 -48 0 -70 80
-39 139 21 41 77 232 151 511 83 316 135 480 190 603 85 188 113 326 139 678
17 239 20 482 4 510 -8 17 -17 19 -57 14 -57 -8 -111 10 -189 62 -170 113
-308 300 -359 488 -25 93 -30 266 -10 366 38 186 146 441 225 531 110 124 376
177 524 104 33 -16 76 -49 105 -80 77 -85 113 -168 192 -443 11 -40 24 -73 29
-73 4 0 25 38 45 84 38 84 82 138 123 150 16 5 26 22 38 64 23 81 74 152 189
267 237 236 570 455 801 528 69 21 193 45 325 61 80 10 499 -3 595 -19z m60
-470 c0 -17 -8 -20 -51 -23 -36 -2 -54 1 -63 12 -22 26 -2 37 57 34 49 -3 57
-6 57 -23z m729 -181 c45 -17 -11 -98 -63 -92 -21 2 -27 9 -29 35 -5 46 43 76
92 57z m-167 -235 c38 -14 83 -58 83 -81 0 -10 -12 -24 -26 -30 -22 -10 -33
-9 -72 12 -26 14 -53 38 -62 53 -14 26 -14 29 4 43 24 17 36 17 73 3z m1001
-1036 c4 -28 -88 -126 -113 -121 -75 14 7 154 85 146 17 -2 26 -10 28 -25z
m-98 -262 c15 -29 12 -73 -6 -99 -23 -34 -44 -12 -44 47 0 63 28 92 50 52z
m2680 -47 c52 -47 140 -179 140 -209 0 -36 -33 -49 -109 -42 -94 8 -172 40
-215 87 -39 44 -45 73 -20 108 22 32 115 92 141 92 13 0 41 -16 63 -36z
m-2824 -244 c60 -63 160 -208 210 -303 52 -100 55 -138 13 -169 -31 -24 -103
-35 -114 -19 -4 7 -1 40 5 74 17 84 -2 147 -80 266 -72 110 -103 168 -95 181
11 17 22 11 61 -30z m-13 -180 c32 -25 60 -97 61 -156 1 -37 -4 -50 -23 -65
-48 -39 -166 -13 -204 45 -22 32 -22 80 -1 97 14 11 22 10 56 -9 l41 -22 -7
39 c-12 80 24 113 77 71z m2874 -191 c48 -18 102 -79 118 -133 20 -65 19 -166
-1 -216 -16 -41 -55 -70 -91 -70 -33 0 -81 38 -109 85 -49 84 -42 268 12 321
26 27 32 28 71 13z m-2557 -213 c0 -8 -22 -42 -49 -74 -91 -109 -187 -129
-210 -44 -16 55 0 75 52 67 36 -5 52 -1 107 29 70 38 100 44 100 22z m1300
-53 c127 -33 242 -110 357 -238 79 -89 147 -139 283 -207 145 -72 258 -157
386 -290 115 -120 170 -203 184 -279 14 -76 85 -218 189 -377 105 -162 136
-221 156 -299 26 -97 7 -161 -85 -288 -76 -105 -80 -121 -44 -151 25 -20 27
-25 14 -34 -8 -6 -37 -9 -64 -7 -49 4 -62 14 -91 61 -7 12 -33 20 -80 27 -200
28 -267 55 -364 145 -71 65 -113 129 -136 204 -62 205 -168 415 -304 598 -122
164 -198 215 -377 251 -101 21 -349 41 -501 41 l-83 0 0 -110 c0 -177 -42
-332 -130 -480 -102 -173 -189 -219 -356 -191 -146 25 -252 70 -360 153 -83
63 -111 66 -174 20 -51 -37 -65 -39 -80 -13 -22 43 -5 157 71 476 28 116 65
282 83 370 39 183 66 262 104 303 40 42 118 53 442 62 151 5 285 11 298 15 13
4 32 24 42 45 25 50 81 92 182 140 167 77 287 92 438 53z m-7342 -254 c186
-20 364 -73 524 -156 136 -71 195 -149 219 -288 13 -79 7 -409 -11 -559 -12
-100 -29 -136 -80 -169 -92 -60 -185 -69 -260 -25 -46 27 -109 47 -285 94 -55
15 -152 51 -216 80 -133 62 -175 67 -301 34 -136 -35 -259 -44 -389 -26 -131
18 -157 15 -164 -23 -18 -89 -35 -96 -121 -57 -89 41 -90 41 -100 -85 -9 -109
-34 -121 -48 -22 -3 24 -11 54 -17 65 -12 22 -12 22 -38 -9 -38 -45 -51 -45
-65 2 -9 30 -17 41 -35 43 -31 5 -44 -10 -50 -59 -8 -56 -29 -69 -76 -44 -95
52 -205 168 -205 217 0 24 -20 31 -51 20 -59 -22 -63 13 -14 116 28 58 43 77
81 102 83 52 173 50 225 -7 34 -36 79 -53 144 -53 57 0 68 7 107 62 9 13 44
39 79 58 92 49 146 102 164 162 19 65 66 128 173 230 100 94 211 181 292 226
125 70 305 95 518 71z m3262 -1566 c142 -41 482 -201 484 -228 1 -15 -110 -72
-194 -99 -91 -29 -233 -52 -399 -66 -144 -12 -232 -30 -291 -61 -35 -19 -51
-21 -110 -15 -94 8 -212 47 -294 97 -73 44 -96 48 -197 34 -50 -7 -59 -5 -78
14 -56 56 5 197 109 251 58 30 143 40 329 40 197 0 295 11 355 40 23 10 48 21
56 24 27 10 144 -6 230 -31z m1733 -255 c27 -14 21 -32 -30 -88 -83 -92 -211
-181 -336 -234 -23 -10 -45 -29 -55 -48 -43 -79 -103 -116 -136 -83 -23 23
-20 45 13 97 77 121 328 341 421 368 28 9 95 2 123 -12z m-1347 -232 c16 -41
-126 -236 -171 -236 -22 0 -48 46 -41 73 9 39 48 88 104 134 54 44 98 56 108
29z m33 -355 c15 -15 18 -28 14 -64 -7 -56 11 -84 87 -138 63 -44 85 -76 75
-108 -13 -42 -153 -54 -182 -15 -7 10 -10 28 -6 43 l6 26 -22 -20 c-19 -16
-22 -26 -16 -60 4 -33 1 -47 -15 -68 -40 -51 -70 -27 -81 65 -4 32 -10 62 -13
66 -4 3 -17 0 -29 -8 -90 -57 -108 -64 -144 -50 -32 11 -40 10 -89 -15 -48
-24 -63 -27 -122 -23 -93 7 -158 37 -177 83 -16 36 -70 82 -125 105 -39 16
-45 9 -31 -31 18 -51 14 -69 -13 -69 -38 0 -86 62 -86 110 0 50 24 73 104 99
133 44 486 85 754 90 78 1 95 -2 111 -18z m-1596 -159 c29 -31 69 -134 60
-157 -12 -33 -94 -6 -136 44 -29 35 -36 86 -17 122 16 29 61 24 93 -9z m269
-97 c14 -32 -2 -71 -37 -87 -52 -24 -76 42 -30 87 31 32 52 32 67 0z m5699
-721 c10 -12 10 -24 1 -61 -13 -47 -5 -73 23 -73 26 0 55 -51 55 -96 0 -34 -6
-51 -29 -76 -26 -29 -36 -33 -78 -33 -96 0 -148 46 -160 143 -12 105 23 171
105 196 61 19 67 19 83 0z m-2801 -167 c0 -39 -43 -112 -65 -112 -31 0 -31 46
0 94 29 47 65 57 65 18z m-194 -266 c-3 -19 -12 -42 -21 -50 -14 -14 -17 -14
-25 -1 -14 22 -12 104 3 119 20 20 50 -25 43 -68z m2494 -523 c71 -48 68 -133
-3 -126 -31 3 -32 5 -32 49 0 30 -6 53 -18 66 -33 37 3 44 53 11z"/>
<path d="M7182 9193 c-43 -6 -37 -24 14 -41 72 -24 147 12 78 38 -25 10 -31
10 -92 3z"/>
<path d="M5805 9028 c-16 -6 -48 -23 -70 -37 -59 -37 -20 -40 52 -3 76 38 88
65 18 40z"/>
<path d="M5362 8860 c-45 -42 -5 -76 59 -49 24 9 29 17 27 38 -4 35 -53 41
-86 11z"/>
<path d="M4760 7414 c-80 -26 -120 -63 -120 -109 0 -32 -50 -112 -115 -185
-87 -96 -120 -166 -134 -290 -6 -52 -23 -159 -37 -238 -25 -143 -25 -182 0
-182 8 0 45 7 83 16 81 18 139 8 173 -28 43 -47 19 -66 -55 -43 -28 8 -54 15
-59 15 -15 0 4 -67 54 -189 49 -118 60 -174 40 -211 -5 -10 -39 -39 -75 -64
-72 -52 -96 -83 -70 -92 30 -12 82 7 238 85 92 47 176 83 203 87 83 12 194
125 293 299 55 96 57 127 8 198 -20 29 -37 57 -37 60 0 12 26 8 56 -8 15 -8
30 -12 32 -10 2 2 -2 26 -9 54 -14 57 -4 81 37 81 37 0 49 -41 33 -113 -6 -32
-10 -60 -7 -62 11 -11 156 154 190 215 41 74 88 215 88 263 -1 65 -34 95 -261
237 -166 104 -295 172 -376 199 -58 19 -138 26 -173 15z m-91 -393 c27 -17 1
-39 -113 -97 -87 -45 -118 -56 -127 -47 -16 16 72 110 126 134 43 20 92 24
114 10z m126 -122 c45 -43 -26 -77 -162 -78 -75 -1 -83 1 -83 18 0 39 132 96
195 84 17 -3 39 -14 50 -24z m241 -267 c52 -42 61 -130 18 -181 -28 -33 -65
-46 -160 -57 -118 -12 -134 28 -55 148 51 78 91 108 146 108 17 0 40 -8 51
-18z"/>
<path d="M6565 7330 c-179 -16 -263 -41 -290 -87 -23 -39 -88 -83 -226 -152
-156 -78 -154 -73 -155 -274 -2 -180 -9 -216 -55 -263 -36 -37 -33 -64 6 -64
18 0 31 9 43 30 21 37 40 38 48 3 9 -36 32 -63 56 -63 24 0 23 7 -12 60 -16
25 -30 53 -30 62 0 30 48 52 111 53 50 0 62 -4 87 -28 34 -33 52 -85 52 -155
0 -95 28 -136 131 -187 133 -68 249 -85 409 -61 95 15 151 32 423 129 50 17
64 19 91 9 18 -7 41 -12 51 -12 29 0 82 46 112 98 24 40 28 58 28 119 0 68 2
74 33 105 17 19 32 37 32 41 0 4 -29 7 -65 7 -78 0 -94 17 -49 53 16 12 45 36
64 54 l35 33 -32 -6 c-54 -10 -191 25 -359 91 -89 35 -184 69 -210 75 -27 7
-61 16 -75 22 -93 34 -40 208 81 263 22 10 40 21 40 25 0 20 -238 33 -375 20z
m271 -385 c154 -52 281 -131 377 -235 31 -34 57 -65 57 -71 0 -23 -40 -3 -157
82 -112 80 -191 129 -208 129 -12 0 -3 -21 30 -70 38 -57 44 -90 19 -114 -24
-25 -46 -18 -114 34 -38 30 -89 50 -127 50 -43 0 -81 27 -92 66 -5 19 -8 41
-6 47 2 7 6 24 9 40 16 72 83 85 212 42z m-5 -370 c43 -23 86 -88 99 -151 8
-37 19 -60 37 -74 16 -13 23 -25 19 -36 -6 -15 -25 -16 -184 -11 -188 6 -287
23 -362 60 -36 17 -51 33 -73 77 -56 110 -16 131 77 41 94 -90 141 -93 211
-14 121 136 121 136 176 108z"/>
<path d="M4793 5716 c-41 -19 -66 -68 -68 -134 0 -42 -5 -56 -20 -64 -19 -11
-369 -5 -532 9 l-73 6 0 -79 c0 -130 29 -655 46 -847 18 -195 43 -339 60 -344
20 -7 29 40 79 385 30 209 105 425 195 559 81 119 213 223 285 223 35 0 47 -9
160 -124 144 -146 213 -196 268 -196 38 0 38 1 32 30 -9 42 13 73 87 120 111
72 354 150 466 150 l56 0 68 -70 c74 -76 93 -83 151 -54 154 78 154 220 0 301
-129 69 -217 77 -447 37 -173 -30 -257 -29 -303 4 -87 62 -436 122 -510 88z"/>
<path d="M3961 5345 c-7 -38 -18 -91 -26 -117 -15 -51 -5 -63 19 -25 24 36 38
121 29 169 l-9 43 -13 -70z"/>
<path d="M5510 5220 c-52 -10 -97 -36 -146 -86 -49 -48 -57 -71 -21 -59 54 18
117 16 223 -9 172 -40 173 -40 180 -21 10 24 -24 55 -60 55 -44 0 -57 12 -60
54 -5 59 -43 81 -116 66z"/>
<path d="M8980 6051 c-91 -24 -107 -35 -134 -89 -24 -48 -58 -89 -188 -230
-81 -89 -96 -125 -75 -187 32 -93 122 -201 200 -239 44 -21 52 -9 52 77 -1 94
-20 168 -56 213 -81 102 -28 179 116 172 81 -4 144 -30 199 -84 42 -41 46 -71
12 -107 -47 -51 -99 -43 -182 26 -22 18 -48 39 -58 47 -47 37 6 -29 82 -101
92 -88 107 -121 116 -265 7 -114 24 -169 51 -169 28 0 49 69 69 226 19 143 22
433 6 524 -23 128 -68 206 -119 204 -14 0 -55 -8 -91 -18z"/>
<path d="M8514 5194 c-10 -14 -19 -47 -22 -75 -4 -40 -2 -49 11 -49 19 0 55
44 63 77 8 32 -3 73 -21 73 -8 0 -22 -12 -31 -26z"/>
<path d="M8776 4914 c-8 -21 37 -64 68 -64 16 0 30 8 37 22 10 18 8 24 -11 40
-28 22 -86 24 -94 2z"/>
<path d="M9051 2126 c-21 -25 -39 -147 -61 -401 -51 -614 -91 -751 -424 -1440
-142 -293 -140 -275 -26 -283 79 -5 130 16 180 75 55 67 230 444 320 691 124
340 167 630 158 1058 -5 224 -13 266 -59 298 -29 20 -73 21 -88 2z"/>
<path d="M3077 1880 c-32 -16 -75 -43 -96 -59 -67 -54 -149 -91 -197 -91 -25
0 -73 -7 -107 -16 -71 -18 -230 -93 -235 -111 -6 -22 48 -27 102 -10 29 9 80
38 114 63 57 42 92 52 92 25 0 -23 -105 -113 -206 -176 -60 -38 -114 -73 -121
-79 -9 -8 6 -32 62 -96 82 -93 138 -194 155 -280 41 -202 60 -248 128 -314 25
-25 43 -48 39 -52 -3 -4 -34 -1 -67 6 -59 12 -62 12 -83 -9 -36 -35 -29 -169
23 -426 23 -116 44 -220 47 -232 l5 -23 633 0 634 0 -78 153 c-43 83 -133 291
-200 462 -139 349 -143 359 -179 398 -22 23 -34 27 -79 27 -64 0 -154 -29
-223 -71 -54 -33 -102 -36 -108 -7 -4 21 21 43 100 88 74 43 95 69 108 139 21
113 7 628 -18 653 -5 5 -29 -1 -55 -12 -37 -17 -51 -19 -68 -10 -13 7 -19 18
-16 28 21 65 22 62 -14 62 -19 0 -60 -13 -92 -30z m22 -114 c15 -18 -1 -53
-54 -116 -47 -56 -59 -81 -79 -159 -32 -127 -168 -353 -215 -359 -23 -4 -24
-2 -19 47 7 73 215 485 279 553 47 50 68 58 88 34z m-31 -876 c4 -36 -33 -89
-73 -106 -77 -32 -90 24 -21 93 51 51 89 56 94 13z"/>
<path d="M3531 1826 c-42 -50 59 -444 204 -801 108 -267 334 -738 412 -860 61
-95 87 -120 147 -145 42 -17 69 -20 139 -18 l86 3 -121 220 c-269 490 -483
984 -574 1330 -46 171 -61 212 -94 248 -25 28 -33 30 -106 35 -65 3 -82 1 -93
-12z"/>
<path d="M2164 1027 c12 -35 25 -295 31 -607 3 -173 10 -332 16 -352 7 -26 19
-43 39 -53 38 -20 104 -19 135 1 46 30 50 65 49 409 -1 390 -20 575 -58 575
-7 0 -25 -13 -41 -30 -42 -43 -67 -39 -127 23 -28 28 -48 44 -44 34z"/>
<path d="M12030 969 c198 -176 630 -514 687 -538 101 -42 77 68 -43 198 -77
83 -137 125 -211 146 -31 9 -84 34 -119 56 -35 21 -94 58 -131 81 -73 44 -188
98 -213 97 -8 0 5 -17 30 -40z"/>
<path d="M11960 446 c0 -3 53 -36 118 -74 64 -39 178 -114 252 -168 213 -154
341 -212 409 -185 28 12 61 57 61 84 0 31 -42 87 -69 93 -95 20 -224 63 -397
132 -249 100 -374 139 -374 118z"/>
</g>
</svg>
